<?xml version="1.0" encoding="UTF-8"?>
<svg xmlns="http://www.w3.org/2000/svg" xmlns:xlink="http://www.w3.org/1999/xlink" width="425.19pt" height="425.19pt" viewBox="0 0 425.19 425.19" version="1.2">
<g id="surface5">
<path style=" stroke:none;fill-rule:nonzero;fill:rgb(100%,100%,100%);fill-opacity:1;" d="M 0 0 L 425.191406 0 L 425.191406 425.191406 L 0 425.191406 Z M 0 0 "/>
<path style="fill:none;stroke-width:0.5;stroke-linecap:butt;stroke-linejoin:miter;stroke:rgb(74.117647%,74.117647%,74.117647%);stroke-opacity:1;stroke-miterlimit:10;" d="M 14.171875 -2.5 L 14.171875 422.691406 M 28.339844 -2.5 L 28.339844 422.691406 M 42.511719 -2.5 L 42.511719 422.691406 M 56.679688 -2.5 L 56.679688 422.691406 M 70.851562 -2.5 L 70.851562 422.691406 M 85.019531 -2.5 L 85.019531 422.691406 M 99.191406 -2.5 L 99.191406 422.691406 M 113.359375 -2.5 L 113.359375 422.691406 M 127.53125 -2.5 L 127.53125 422.691406 M 141.699219 -2.5 L 141.699219 422.691406 M 155.871094 -2.5 L 155.871094 422.691406 M 170.039062 -2.5 L 170.039062 422.691406 M 184.210938 -2.5 L 184.210938 422.691406 M 198.378906 -2.5 L 198.378906 422.691406 M 212.550781 -2.5 L 212.550781 422.691406 M 226.71875 -2.5 L 226.71875 422.691406 M 240.890625 -2.5 L 240.890625 422.691406 M 255.058594 -2.5 L 255.058594 422.691406 M 269.230469 -2.5 L 269.230469 422.691406 M 283.398438 -2.5 L 283.398438 422.691406 M 297.570312 -2.5 L 297.570312 422.691406 M 311.738281 -2.5 L 311.738281 422.691406 M 325.910156 -2.5 L 325.910156 422.691406 M 340.078125 -2.5 L 340.078125 422.691406 M 354.25 -2.5 L 354.25 422.691406 M 368.421875 -2.5 L 368.421875 422.691406 M 382.589844 -2.5 L 382.589844 422.691406 M 396.761719 -2.5 L 396.761719 422.691406 M 410.929688 -2.5 L 410.929688 422.691406 M 425.101562 -2.5 L 425.101562 422.691406 M 0 14.171875 L 425.191406 14.171875 M 0 28.339844 L 425.191406 28.339844 M 0 42.511719 L 425.191406 42.511719 M 0 56.679688 L 425.191406 56.679688 M 0 70.851562 L 425.191406 70.851562 M 0 85.019531 L 425.191406 85.019531 M 0 99.191406 L 425.191406 99.191406 M 0 113.359375 L 425.191406 113.359375 M 0 127.53125 L 425.191406 127.53125 M 0 141.699219 L 425.191406 141.699219 M 0 155.871094 L 425.191406 155.871094 M 0 170.039062 L 425.191406 170.039062 M 0 184.210938 L 425.191406 184.210938 M 0 198.378906 L 425.191406 198.378906 M 0 212.550781 L 425.191406 212.550781 M 0 226.71875 L 425.191406 226.71875 M 0 240.890625 L 425.191406 240.890625 M 0 255.058594 L 425.191406 255.058594 M 0 269.230469 L 425.191406 269.230469 M 0 283.398438 L 425.191406 283.398438 M 0 297.570312 L 425.191406 297.570312 M 0 311.738281 L 425.191406 311.738281 M 0 325.910156 L 425.191406 325.910156 M 0 340.078125 L 425.191406 340.078125 M 0 354.25 L 425.191406 354.25 M 0 368.421875 L 425.191406 368.421875 M 0 382.589844 L 425.191406 382.589844 M 0 396.761719 L 425.191406 396.761719 M 0 410.929688 L 425.191406 410.929688 M 0 425.101562 L 425.191406 425.101562 "/>
<path style="fill:none;stroke-width:0.85;stroke-linecap:round;stroke-linejoin:round;stroke:rgb(0%,0%,0%);stroke-opacity:1;comp-op:src;clip-to-self:true;stroke-miterlimit:10;" d="M 76.917969 69.890625 L 76.960938 68.308594 L 77.09375 66.734375 L 77.308594 65.167969 L 77.609375 63.617188 L 77.992188 62.082031 L 78.460938 60.574219 L 79.007812 59.089844 L 79.640625 57.640625 L 80.347656 56.226562 L 81.132812 54.855469 L 81.988281 53.527344 L 82.917969 52.25 L 83.914062 51.023438 L 84.980469 49.855469 L 86.105469 48.742188 L 87.289062 47.695312 L 88.527344 46.714844 L 89.820312 45.804688 L 91.15625 44.964844 L 92.539062 44.199219 L 93.964844 43.511719 L 95.421875 42.902344 L 96.910156 42.371094 L 98.425781 41.925781 L 99.964844 41.5625 L 101.519531 41.28125 L 103.089844 41.089844 L 104.667969 40.980469 L 106.246094 40.960938 L 107.828125 41.023438 L 109.398438 41.175781 L 110.960938 41.410156 L 112.511719 41.734375 L 114.039062 42.136719 L 115.539062 42.625 L 117.015625 43.195312 L 118.457031 43.847656 L 119.859375 44.574219 L 121.222656 45.375 L 122.535156 46.25 L 123.800781 47.199219 L 125.015625 48.210938 L 126.171875 49.292969 L 127.265625 50.429688 L 128.296875 51.628906 L 129.257812 52.882812 L 130.152344 54.1875 L 130.972656 55.535156 L 131.71875 56.929688 L 132.390625 58.363281 L 132.980469 59.828125 L 133.488281 61.324219 L 133.914062 62.847656 L 134.257812 64.390625 L 134.515625 65.949219 L 134.6875 67.519531 L 134.773438 69.097656 L 134.773438 70.679688 L 134.6875 72.257812 L 134.515625 73.828125 L 134.257812 75.386719 L 133.914062 76.929688 L 133.488281 78.453125 L 132.980469 79.949219 L 132.390625 81.414062 L 131.71875 82.847656 L 130.972656 84.242188 L 130.152344 85.589844 L 129.257812 86.894531 L 128.296875 88.148438 L 127.265625 89.347656 L 126.171875 90.488281 L 125.015625 91.566406 L 123.800781 92.578125 L 122.535156 93.527344 L 121.222656 94.402344 L 119.859375 95.203125 L 118.457031 95.929688 L 117.015625 96.582031 L 115.539062 97.152344 L 114.039062 97.640625 L 112.511719 98.042969 L 110.960938 98.367188 L 109.398438 98.601562 L 107.828125 98.753906 L 106.246094 98.820312 L 104.667969 98.796875 L 103.089844 98.6875 L 101.519531 98.496094 L 99.964844 98.214844 L 98.425781 97.851562 L 96.910156 97.40625 L 95.421875 96.875 L 93.964844 96.265625 L 92.539062 95.578125 L 91.15625 94.8125 L 89.820312 93.972656 L 88.527344 93.0625 L 87.289062 92.082031 L 86.105469 91.035156 L 84.980469 89.921875 L 83.914062 88.753906 L 82.917969 87.527344 L 81.988281 86.25 L 81.132812 84.921875 L 80.347656 83.550781 L 79.640625 82.136719 L 79.007812 80.6875 L 78.460938 79.203125 L 77.992188 77.695312 L 77.609375 76.160156 L 77.308594 74.609375 L 77.09375 73.042969 L 76.960938 71.46875 L 76.917969 69.890625 "/>
<path style="fill:none;stroke-width:0.85;stroke-linecap:round;stroke-linejoin:round;stroke:rgb(0%,0%,0%);stroke-opacity:1;comp-op:src;clip-to-self:true;stroke-miterlimit:10;" d="M 271.679688 185.074219 L 271.726562 183.378906 L 271.863281 181.6875 L 272.09375 180.011719 L 272.410156 178.347656 L 272.820312 176.710938 L 273.316406 175.101562 L 273.898438 173.523438 L 274.566406 171.988281 L 275.3125 170.496094 L 276.140625 169.050781 L 277.046875 167.664062 L 278.023438 166.332031 L 279.074219 165.066406 L 280.1875 163.867188 L 281.367188 162.738281 L 282.601562 161.6875 L 283.894531 160.714844 L 285.238281 159.824219 L 286.625 159.019531 L 288.054688 158.300781 L 289.519531 157.675781 L 291.019531 157.140625 L 292.542969 156.703125 L 294.085938 156.359375 L 295.644531 156.113281 L 297.21875 155.964844 L 298.792969 155.917969 L 300.371094 155.964844 L 301.941406 156.113281 L 303.5 156.359375 L 305.046875 156.703125 L 306.570312 157.140625 L 308.066406 157.675781 L 309.53125 158.300781 L 310.960938 159.019531 L 312.351562 159.824219 L 313.691406 160.714844 L 314.984375 161.6875 L 316.222656 162.738281 L 317.398438 163.867188 L 318.515625 165.066406 L 319.5625 166.332031 L 320.542969 167.664062 L 321.445312 169.050781 L 322.273438 170.496094 L 323.023438 171.988281 L 323.6875 173.523438 L 324.269531 175.101562 L 324.765625 176.710938 L 325.175781 178.347656 L 325.496094 180.011719 L 325.722656 181.6875 L 325.859375 183.378906 L 325.90625 185.074219 L 325.859375 186.769531 L 325.722656 188.457031 L 325.496094 190.136719 L 325.175781 191.796875 L 324.765625 193.4375 L 324.269531 195.046875 L 323.6875 196.621094 L 323.023438 198.160156 L 322.273438 199.652344 L 321.445312 201.097656 L 320.542969 202.484375 L 319.5625 203.816406 L 318.515625 205.082031 L 317.398438 206.28125 L 316.222656 207.410156 L 314.984375 208.460938 L 313.691406 209.433594 L 312.351562 210.324219 L 310.960938 211.128906 L 309.53125 211.847656 L 308.066406 212.472656 L 306.570312 213.007812 L 305.046875 213.445312 L 303.5 213.789062 L 301.941406 214.035156 L 300.371094 214.179688 L 298.792969 214.230469 L 297.21875 214.179688 L 295.644531 214.035156 L 294.085938 213.789062 L 292.542969 213.445312 L 291.019531 213.007812 L 289.519531 212.472656 L 288.054688 211.847656 L 286.625 211.128906 L 285.238281 210.324219 L 283.894531 209.433594 L 282.601562 208.460938 L 281.367188 207.410156 L 280.1875 206.28125 L 279.074219 205.082031 L 278.023438 203.816406 L 277.046875 202.484375 L 276.140625 201.097656 L 275.3125 199.652344 L 274.566406 198.160156 L 273.898438 196.621094 L 273.316406 195.046875 L 272.820312 193.4375 L 272.410156 191.796875 L 272.09375 190.136719 L 271.863281 188.457031 L 271.726562 186.769531 L 271.679688 185.074219 "/>
<path style="fill:none;stroke-width:0.85;stroke-linecap:round;stroke-linejoin:round;stroke:rgb(0%,0%,0%);stroke-opacity:1;comp-op:src;clip-to-self:true;stroke-miterlimit:10;" d="M 102.222656 278.503906 L 102.269531 276.929688 L 102.40625 275.363281 L 102.640625 273.804688 L 102.964844 272.265625 L 103.378906 270.75 L 103.882812 269.257812 L 104.472656 267.796875 L 105.152344 266.378906 L 105.910156 265 L 106.75 263.667969 L 107.667969 262.390625 L 108.660156 261.167969 L 109.722656 260.007812 L 110.851562 258.910156 L 112.042969 257.882812 L 113.296875 256.929688 L 114.601562 256.050781 L 115.957031 255.25 L 117.355469 254.53125 L 118.796875 253.894531 L 120.269531 253.347656 L 121.777344 252.886719 L 123.304688 252.519531 L 124.855469 252.238281 L 126.417969 252.054688 L 127.988281 251.960938 L 129.5625 251.960938 L 131.132812 252.054688 L 132.695312 252.238281 L 134.246094 252.519531 L 135.777344 252.886719 L 137.28125 253.347656 L 138.757812 253.894531 L 140.195312 254.53125 L 141.597656 255.25 L 142.953125 256.050781 L 144.257812 256.929688 L 145.507812 257.882812 L 146.699219 258.910156 L 147.828125 260.007812 L 148.890625 261.167969 L 149.882812 262.390625 L 150.800781 263.667969 L 151.640625 265 L 152.402344 266.378906 L 153.078125 267.796875 L 153.667969 269.257812 L 154.171875 270.75 L 154.589844 272.265625 L 154.914062 273.804688 L 155.144531 275.363281 L 155.285156 276.929688 L 155.332031 278.503906 L 155.285156 280.078125 L 155.144531 281.644531 L 154.914062 283.199219 L 154.589844 284.742188 L 154.171875 286.257812 L 153.667969 287.75 L 153.078125 289.207031 L 152.402344 290.628906 L 151.640625 292.007812 L 150.800781 293.339844 L 149.882812 294.617188 L 148.890625 295.839844 L 147.828125 297 L 146.699219 298.097656 L 145.507812 299.125 L 144.257812 300.078125 L 142.953125 300.957031 L 141.597656 301.757812 L 140.195312 302.476562 L 138.757812 303.113281 L 137.28125 303.660156 L 135.777344 304.121094 L 134.246094 304.488281 L 132.695312 304.769531 L 131.132812 304.953125 L 129.5625 305.046875 L 127.988281 305.046875 L 126.417969 304.953125 L 124.855469 304.769531 L 123.304688 304.488281 L 121.777344 304.121094 L 120.269531 303.660156 L 118.796875 303.113281 L 117.355469 302.476562 L 115.957031 301.757812 L 114.601562 300.957031 L 113.296875 300.078125 L 112.042969 299.125 L 110.851562 298.097656 L 109.722656 297 L 108.660156 295.839844 L 107.667969 294.617188 L 106.75 293.339844 L 105.910156 292.007812 L 105.152344 290.628906 L 104.472656 289.207031 L 103.882812 287.75 L 103.378906 286.257812 L 102.964844 284.742188 L 102.640625 283.199219 L 102.40625 281.644531 L 102.269531 280.078125 L 102.222656 278.503906 "/>
<path style="fill:none;stroke-width:0.85;stroke-linecap:round;stroke-linejoin:round;stroke:rgb(0%,0%,0%);stroke-opacity:1;comp-op:src;clip-to-self:true;stroke-miterlimit:10;" d="M 132.679688 87.804688 L 269.234375 166.644531 L 266.261719 161.492188 L 269.234375 166.644531 L 263.285156 166.644531 "/>
<path style="fill:none;stroke-width:0.85;stroke-linecap:round;stroke-linejoin:round;stroke:rgb(0%,0%,0%);stroke-opacity:1;comp-op:src;clip-to-self:true;stroke-miterlimit:10;" d="M 278.515625 209.472656 L 163.113281 276.101562 L 169.0625 276.101562 L 163.113281 276.101562 L 166.085938 270.949219 "/>
<path style="fill:none;stroke-width:0.85;stroke-linecap:round;stroke-linejoin:round;stroke:rgb(0%,0%,0%);stroke-opacity:1;comp-op:src;clip-to-self:true;stroke-miterlimit:10;" d="M 105.941406 101.601562 L 120.75 245.746094 L 123.183594 240.316406 L 120.75 245.746094 L 117.265625 240.925781 "/>
<path style="fill:none;stroke-width:0.246378;stroke-linecap:round;stroke-linejoin:round;stroke:rgb(0%,0%,0%);stroke-opacity:1;comp-op:src;clip-to-self:true;stroke-miterlimit:10;" d="M 157.46875 46.183594 L 157.433594 45.832031 "/>
<path style="fill:none;stroke-width:0.282914;stroke-linecap:round;stroke-linejoin:round;stroke:rgb(0%,0%,0%);stroke-opacity:1;comp-op:src;clip-to-self:true;stroke-miterlimit:10;" d="M 157.433594 45.832031 L 157.328125 45.199219 "/>
<path style="fill:none;stroke-width:0.300138;stroke-linecap:round;stroke-linejoin:round;stroke:rgb(0%,0%,0%);stroke-opacity:1;comp-op:src;clip-to-self:true;stroke-miterlimit:10;" d="M 157.328125 45.199219 L 157.1875 44.808594 "/>
<path style="fill:none;stroke-width:0.31508;stroke-linecap:round;stroke-linejoin:round;stroke:rgb(0%,0%,0%);stroke-opacity:1;comp-op:src;clip-to-self:true;stroke-miterlimit:10;" d="M 157.1875 44.808594 L 157.011719 44.386719 "/>
<path style="fill:none;stroke-width:0.328581;stroke-linecap:round;stroke-linejoin:round;stroke:rgb(0%,0%,0%);stroke-opacity:1;comp-op:src;clip-to-self:true;stroke-miterlimit:10;" d="M 157.011719 44.386719 L 156.765625 43.929688 "/>
<path style="fill:none;stroke-width:0.34207;stroke-linecap:round;stroke-linejoin:round;stroke:rgb(0%,0%,0%);stroke-opacity:1;comp-op:src;clip-to-self:true;stroke-miterlimit:10;" d="M 156.765625 43.929688 L 156.445312 43.433594 "/>
<path style="fill:none;stroke-width:0.355559;stroke-linecap:round;stroke-linejoin:round;stroke:rgb(0%,0%,0%);stroke-opacity:1;comp-op:src;clip-to-self:true;stroke-miterlimit:10;" d="M 156.445312 43.433594 L 156.09375 42.835938 "/>
<path style="fill:none;stroke-width:0.368425;stroke-linecap:round;stroke-linejoin:round;stroke:rgb(0%,0%,0%);stroke-opacity:1;comp-op:src;clip-to-self:true;stroke-miterlimit:10;" d="M 156.09375 42.835938 L 155.601562 42.234375 "/>
<path style="fill:none;stroke-width:0.378606;stroke-linecap:round;stroke-linejoin:round;stroke:rgb(0%,0%,0%);stroke-opacity:1;comp-op:src;clip-to-self:true;stroke-miterlimit:10;" d="M 155.601562 42.234375 L 155 41.601562 "/>
<path style="fill:none;stroke-width:0.387115;stroke-linecap:round;stroke-linejoin:round;stroke:rgb(0%,0%,0%);stroke-opacity:1;comp-op:src;clip-to-self:true;stroke-miterlimit:10;" d="M 155 41.601562 L 154.332031 41.035156 "/>
<path style="fill:none;stroke-width:0.39334;stroke-linecap:round;stroke-linejoin:round;stroke:rgb(0%,0%,0%);stroke-opacity:1;comp-op:src;clip-to-self:true;stroke-miterlimit:10;" d="M 154.332031 41.035156 L 153.519531 40.578125 "/>
<path style="fill:none;stroke-width:0.398528;stroke-linecap:round;stroke-linejoin:round;stroke:rgb(0%,0%,0%);stroke-opacity:1;comp-op:src;clip-to-self:true;stroke-miterlimit:10;" d="M 153.519531 40.578125 L 152.601562 40.261719 "/>
<path style="fill:none;stroke-width:0.401226;stroke-linecap:round;stroke-linejoin:round;stroke:rgb(0%,0%,0%);stroke-opacity:1;comp-op:src;clip-to-self:true;stroke-miterlimit:10;" d="M 152.601562 40.261719 L 151.546875 40.050781 "/>
<path style="fill:none;stroke-width:0.402886;stroke-linecap:round;stroke-linejoin:round;stroke:rgb(0%,0%,0%);stroke-opacity:1;comp-op:src;clip-to-self:true;stroke-miterlimit:10;" d="M 151.546875 40.050781 L 150.453125 40.085938 "/>
<path style="fill:none;stroke-width:0.402264;stroke-linecap:round;stroke-linejoin:round;stroke:rgb(0%,0%,0%);stroke-opacity:1;comp-op:src;clip-to-self:true;stroke-miterlimit:10;" d="M 150.453125 40.085938 L 149.253906 40.367188 "/>
<path style="fill:none;stroke-width:0.400811;stroke-linecap:round;stroke-linejoin:round;stroke:rgb(0%,0%,0%);stroke-opacity:1;comp-op:src;clip-to-self:true;stroke-miterlimit:10;" d="M 149.253906 40.367188 L 148.054688 40.894531 "/>
<path style="fill:none;stroke-width:0.398943;stroke-linecap:round;stroke-linejoin:round;stroke:rgb(0%,0%,0%);stroke-opacity:1;comp-op:src;clip-to-self:true;stroke-miterlimit:10;" d="M 148.054688 40.894531 L 146.960938 41.742188 "/>
<path style="fill:none;stroke-width:0.397076;stroke-linecap:round;stroke-linejoin:round;stroke:rgb(0%,0%,0%);stroke-opacity:1;comp-op:src;clip-to-self:true;stroke-miterlimit:10;" d="M 146.960938 41.742188 L 145.9375 42.871094 "/>
<path style="fill:none;stroke-width:0.395831;stroke-linecap:round;stroke-linejoin:round;stroke:rgb(0%,0%,0%);stroke-opacity:1;comp-op:src;clip-to-self:true;stroke-miterlimit:10;" d="M 145.9375 42.871094 L 145.164062 44.140625 "/>
<path style="fill:none;stroke-width:0.394585;stroke-linecap:round;stroke-linejoin:round;stroke:rgb(0%,0%,0%);stroke-opacity:1;comp-op:src;clip-to-self:true;stroke-miterlimit:10;" d="M 145.164062 44.140625 L 144.632812 45.585938 "/>
<path style="fill:none;stroke-width:0.393963;stroke-linecap:round;stroke-linejoin:round;stroke:rgb(0%,0%,0%);stroke-opacity:1;comp-op:src;clip-to-self:true;stroke-miterlimit:10;" d="M 144.632812 45.585938 L 144.28125 47.101562 "/>
<path style="fill:none;stroke-width:0.393755;stroke-linecap:round;stroke-linejoin:round;stroke:rgb(0%,0%,0%);stroke-opacity:1;comp-op:src;clip-to-self:true;stroke-miterlimit:10;" d="M 144.28125 47.101562 L 144.105469 48.6875 "/>
<path style="fill:none;stroke-width:0.394585;stroke-linecap:round;stroke-linejoin:round;stroke:rgb(0%,0%,0%);stroke-opacity:1;comp-op:src;clip-to-self:true;stroke-miterlimit:10;" d="M 144.105469 48.6875 L 144.035156 50.3125 "/>
<path style="fill:none;stroke-width:0.396453;stroke-linecap:round;stroke-linejoin:round;stroke:rgb(0%,0%,0%);stroke-opacity:1;comp-op:src;clip-to-self:true;stroke-miterlimit:10;" d="M 144.035156 50.3125 L 144 52.003906 "/>
<path style="fill:none;stroke-width:0.399151;stroke-linecap:round;stroke-linejoin:round;stroke:rgb(0%,0%,0%);stroke-opacity:1;comp-op:src;clip-to-self:true;stroke-miterlimit:10;" d="M 144 52.003906 L 144.070312 53.589844 "/>
<path style="fill:none;stroke-width:0.401641;stroke-linecap:round;stroke-linejoin:round;stroke:rgb(0%,0%,0%);stroke-opacity:1;comp-op:src;clip-to-self:true;stroke-miterlimit:10;" d="M 144.070312 53.589844 L 144.28125 55.035156 "/>
<path style="fill:none;stroke-width:0.404754;stroke-linecap:round;stroke-linejoin:round;stroke:rgb(0%,0%,0%);stroke-opacity:1;comp-op:src;clip-to-self:true;stroke-miterlimit:10;" d="M 144.28125 55.035156 L 144.703125 56.234375 "/>
<path style="fill:none;stroke-width:0.407659;stroke-linecap:round;stroke-linejoin:round;stroke:rgb(0%,0%,0%);stroke-opacity:1;comp-op:src;clip-to-self:true;stroke-miterlimit:10;" d="M 144.703125 56.234375 L 145.410156 57.082031 "/>
<path style="fill:none;stroke-width:0.410564;stroke-linecap:round;stroke-linejoin:round;stroke:rgb(0%,0%,0%);stroke-opacity:1;comp-op:src;clip-to-self:true;stroke-miterlimit:10;" d="M 145.410156 57.082031 L 146.328125 57.609375 "/>
<path style="fill:none;stroke-width:0.415337;stroke-linecap:round;stroke-linejoin:round;stroke:rgb(0%,0%,0%);stroke-opacity:1;comp-op:src;clip-to-self:true;stroke-miterlimit:10;" d="M 146.328125 57.609375 L 147.527344 57.75 "/>
<path style="fill:none;stroke-width:0.42177;stroke-linecap:round;stroke-linejoin:round;stroke:rgb(0%,0%,0%);stroke-opacity:1;comp-op:src;clip-to-self:true;stroke-miterlimit:10;" d="M 147.527344 57.75 L 148.867188 57.539062 "/>
<path style="fill:none;stroke-width:0.428424;stroke-linecap:round;stroke-linejoin:round;stroke:rgb(0%,0%,0%);stroke-opacity:1;comp-op:src;clip-to-self:true;stroke-miterlimit:10;" d="M 148.867188 57.539062 L 150.171875 56.976562 "/>
<path style="fill:none;stroke-width:0.435065;stroke-linecap:round;stroke-linejoin:round;stroke:rgb(0%,0%,0%);stroke-opacity:1;comp-op:src;clip-to-self:true;stroke-miterlimit:10;" d="M 150.171875 56.976562 L 151.4375 56.058594 "/>
<path style="fill:none;stroke-width:0.44046;stroke-linecap:round;stroke-linejoin:round;stroke:rgb(0%,0%,0%);stroke-opacity:1;comp-op:src;clip-to-self:true;stroke-miterlimit:10;" d="M 151.4375 56.058594 L 152.566406 54.859375 "/>
<path style="fill:none;stroke-width:0.443781;stroke-linecap:round;stroke-linejoin:round;stroke:rgb(0%,0%,0%);stroke-opacity:1;comp-op:src;clip-to-self:true;stroke-miterlimit:10;" d="M 152.566406 54.859375 L 153.554688 53.414062 "/>
<path style="fill:none;stroke-width:0.446478;stroke-linecap:round;stroke-linejoin:round;stroke:rgb(0%,0%,0%);stroke-opacity:1;comp-op:src;clip-to-self:true;stroke-miterlimit:10;" d="M 153.554688 53.414062 L 154.402344 51.828125 "/>
<path style="fill:none;stroke-width:0.448969;stroke-linecap:round;stroke-linejoin:round;stroke:rgb(0%,0%,0%);stroke-opacity:1;comp-op:src;clip-to-self:true;stroke-miterlimit:10;" d="M 154.402344 51.828125 L 155.105469 50.203125 "/>
<path style="fill:none;stroke-width:0.451044;stroke-linecap:round;stroke-linejoin:round;stroke:rgb(0%,0%,0%);stroke-opacity:1;comp-op:src;clip-to-self:true;stroke-miterlimit:10;" d="M 155.105469 50.203125 L 155.636719 48.652344 "/>
<path style="fill:none;stroke-width:0.453119;stroke-linecap:round;stroke-linejoin:round;stroke:rgb(0%,0%,0%);stroke-opacity:1;comp-op:src;clip-to-self:true;stroke-miterlimit:10;" d="M 155.636719 48.652344 L 155.953125 47.207031 "/>
<path style="fill:none;stroke-width:0.454987;stroke-linecap:round;stroke-linejoin:round;stroke:rgb(0%,0%,0%);stroke-opacity:1;comp-op:src;clip-to-self:true;stroke-miterlimit:10;" d="M 155.953125 47.207031 L 156.164062 45.902344 "/>
<path style="fill:none;stroke-width:0.456439;stroke-linecap:round;stroke-linejoin:round;stroke:rgb(0%,0%,0%);stroke-opacity:1;comp-op:src;clip-to-self:true;stroke-miterlimit:10;" d="M 156.164062 45.902344 L 156.269531 44.84375 "/>
<path style="fill:none;stroke-width:0.457684;stroke-linecap:round;stroke-linejoin:round;stroke:rgb(0%,0%,0%);stroke-opacity:1;comp-op:src;clip-to-self:true;stroke-miterlimit:10;" d="M 156.269531 44.84375 L 156.269531 44.035156 "/>
<path style="fill:none;stroke-width:0.458514;stroke-linecap:round;stroke-linejoin:round;stroke:rgb(0%,0%,0%);stroke-opacity:1;comp-op:src;clip-to-self:true;stroke-miterlimit:10;" d="M 156.269531 44.035156 L 156.269531 43.503906 "/>
<path style="fill:none;stroke-width:0.457892;stroke-linecap:round;stroke-linejoin:round;stroke:rgb(0%,0%,0%);stroke-opacity:1;comp-op:src;clip-to-self:true;stroke-miterlimit:10;" d="M 156.269531 43.503906 L 155.917969 44.28125 "/>
<path style="fill:none;stroke-width:0.456439;stroke-linecap:round;stroke-linejoin:round;stroke:rgb(0%,0%,0%);stroke-opacity:1;comp-op:src;clip-to-self:true;stroke-miterlimit:10;" d="M 155.917969 44.28125 L 155.707031 45.375 "/>
<path style="fill:none;stroke-width:0.454987;stroke-linecap:round;stroke-linejoin:round;stroke:rgb(0%,0%,0%);stroke-opacity:1;comp-op:src;clip-to-self:true;stroke-miterlimit:10;" d="M 155.707031 45.375 L 155.496094 46.785156 "/>
<path style="fill:none;stroke-width:0.452496;stroke-linecap:round;stroke-linejoin:round;stroke:rgb(0%,0%,0%);stroke-opacity:1;comp-op:src;clip-to-self:true;stroke-miterlimit:10;" d="M 155.496094 46.785156 L 155.351562 48.441406 "/>
<path style="fill:none;stroke-width:0.450214;stroke-linecap:round;stroke-linejoin:round;stroke:rgb(0%,0%,0%);stroke-opacity:1;comp-op:src;clip-to-self:true;stroke-miterlimit:10;" d="M 155.351562 48.441406 L 155.386719 50.3125 "/>
<path style="fill:none;stroke-width:0.447931;stroke-linecap:round;stroke-linejoin:round;stroke:rgb(0%,0%,0%);stroke-opacity:1;comp-op:src;clip-to-self:true;stroke-miterlimit:10;" d="M 155.386719 50.3125 L 155.636719 52.320312 "/>
<path style="fill:none;stroke-width:0.446063;stroke-linecap:round;stroke-linejoin:round;stroke:rgb(0%,0%,0%);stroke-opacity:1;comp-op:src;clip-to-self:true;stroke-miterlimit:10;" d="M 155.636719 52.320312 L 156.164062 54.507812 "/>
<path style="fill:none;stroke-width:0.445648;stroke-linecap:round;stroke-linejoin:round;stroke:rgb(0%,0%,0%);stroke-opacity:1;comp-op:src;clip-to-self:true;stroke-miterlimit:10;" d="M 156.164062 54.507812 L 157.117188 56.691406 "/>
<path style="fill:none;stroke-width:0.445648;stroke-linecap:round;stroke-linejoin:round;stroke:rgb(0%,0%,0%);stroke-opacity:1;comp-op:src;clip-to-self:true;stroke-miterlimit:10;" d="M 157.117188 56.691406 L 158.492188 58.84375 "/>
<path style="fill:none;stroke-width:0.441913;stroke-linecap:round;stroke-linejoin:round;stroke:rgb(0%,0%,0%);stroke-opacity:1;comp-op:src;clip-to-self:true;stroke-miterlimit:10;" d="M 158.492188 58.84375 L 160.324219 60.710938 "/>
<path style="fill:none;stroke-width:0.426764;stroke-linecap:round;stroke-linejoin:round;stroke:rgb(0%,0%,0%);stroke-opacity:1;comp-op:src;clip-to-self:true;stroke-miterlimit:10;" d="M 160.324219 60.710938 L 162.476562 62.15625 "/>
<path style="fill:none;stroke-width:0.331902;stroke-linecap:round;stroke-linejoin:round;stroke:rgb(0%,0%,0%);stroke-opacity:1;comp-op:src;clip-to-self:true;stroke-miterlimit:10;" d="M 162.476562 62.15625 L 164.839844 63.074219 "/>
<path style="fill:none;stroke-width:0.299931;stroke-linecap:round;stroke-linejoin:round;stroke:rgb(0%,0%,0%);stroke-opacity:1;comp-op:src;clip-to-self:true;stroke-miterlimit:10;" d="M 164.839844 63.074219 L 167.308594 63.460938 "/>
<path style="fill:none;stroke-width:0.0425;stroke-linecap:round;stroke-linejoin:round;stroke:rgb(0%,0%,0%);stroke-opacity:1;comp-op:src;clip-to-self:true;stroke-miterlimit:10;" d="M 167.308594 63.460938 L 169.140625 63.570312 "/>
<path style="fill:none;stroke-width:0.282499;stroke-linecap:round;stroke-linejoin:round;stroke:rgb(0%,0%,0%);stroke-opacity:1;comp-op:src;clip-to-self:true;stroke-miterlimit:10;" d="M 315.863281 118.222656 L 315.542969 117.976562 "/>
<path style="fill:none;stroke-width:0.302421;stroke-linecap:round;stroke-linejoin:round;stroke:rgb(0%,0%,0%);stroke-opacity:1;comp-op:src;clip-to-self:true;stroke-miterlimit:10;" d="M 315.542969 117.976562 L 315.296875 117.800781 "/>
<path style="fill:none;stroke-width:0.31945;stroke-linecap:round;stroke-linejoin:round;stroke:rgb(0%,0%,0%);stroke-opacity:1;comp-op:src;clip-to-self:true;stroke-miterlimit:10;" d="M 315.296875 117.800781 L 315.050781 117.585938 "/>
<path style="fill:none;stroke-width:0.351201;stroke-linecap:round;stroke-linejoin:round;stroke:rgb(0%,0%,0%);stroke-opacity:1;comp-op:src;clip-to-self:true;stroke-miterlimit:10;" d="M 315.050781 117.585938 L 314.769531 117.304688 "/>
<path style="fill:none;stroke-width:0.358464;stroke-linecap:round;stroke-linejoin:round;stroke:rgb(0%,0%,0%);stroke-opacity:1;comp-op:src;clip-to-self:true;stroke-miterlimit:10;" d="M 314.769531 117.304688 L 314.769531 117.941406 "/>
<path style="fill:none;stroke-width:0.360332;stroke-linecap:round;stroke-linejoin:round;stroke:rgb(0%,0%,0%);stroke-opacity:1;comp-op:src;clip-to-self:true;stroke-miterlimit:10;" d="M 314.769531 117.941406 L 314.769531 118.539062 "/>
<path style="fill:none;stroke-width:0.362199;stroke-linecap:round;stroke-linejoin:round;stroke:rgb(0%,0%,0%);stroke-opacity:1;comp-op:src;clip-to-self:true;stroke-miterlimit:10;" d="M 314.769531 118.539062 L 314.769531 119.351562 "/>
<path style="fill:none;stroke-width:0.36469;stroke-linecap:round;stroke-linejoin:round;stroke:rgb(0%,0%,0%);stroke-opacity:1;comp-op:src;clip-to-self:true;stroke-miterlimit:10;" d="M 314.769531 119.351562 L 314.804688 120.410156 "/>
<path style="fill:none;stroke-width:0.36801;stroke-linecap:round;stroke-linejoin:round;stroke:rgb(0%,0%,0%);stroke-opacity:1;comp-op:src;clip-to-self:true;stroke-miterlimit:10;" d="M 314.804688 120.410156 L 314.839844 121.785156 "/>
<path style="fill:none;stroke-width:0.372381;stroke-linecap:round;stroke-linejoin:round;stroke:rgb(0%,0%,0%);stroke-opacity:1;comp-op:src;clip-to-self:true;stroke-miterlimit:10;" d="M 314.839844 121.785156 L 314.875 123.476562 "/>
<path style="fill:none;stroke-width:0.376946;stroke-linecap:round;stroke-linejoin:round;stroke:rgb(0%,0%,0%);stroke-opacity:1;comp-op:src;clip-to-self:true;stroke-miterlimit:10;" d="M 314.875 123.476562 L 314.910156 125.484375 "/>
<path style="fill:none;stroke-width:0.381304;stroke-linecap:round;stroke-linejoin:round;stroke:rgb(0%,0%,0%);stroke-opacity:1;comp-op:src;clip-to-self:true;stroke-miterlimit:10;" d="M 314.910156 125.484375 L 314.980469 127.707031 "/>
<path style="fill:none;stroke-width:0.385247;stroke-linecap:round;stroke-linejoin:round;stroke:rgb(0%,0%,0%);stroke-opacity:1;comp-op:src;clip-to-self:true;stroke-miterlimit:10;" d="M 314.980469 127.707031 L 315.085938 130 "/>
<path style="fill:none;stroke-width:0.39334;stroke-linecap:round;stroke-linejoin:round;stroke:rgb(0%,0%,0%);stroke-opacity:1;comp-op:src;clip-to-self:true;stroke-miterlimit:10;" d="M 315.085938 130 L 315.226562 132.148438 "/>
<path style="fill:none;stroke-width:0.402679;stroke-linecap:round;stroke-linejoin:round;stroke:rgb(0%,0%,0%);stroke-opacity:1;comp-op:src;clip-to-self:true;stroke-miterlimit:10;" d="M 315.226562 132.148438 L 315.332031 134.019531 "/>
<path style="fill:none;stroke-width:0.412225;stroke-linecap:round;stroke-linejoin:round;stroke:rgb(0%,0%,0%);stroke-opacity:1;comp-op:src;clip-to-self:true;stroke-miterlimit:10;" d="M 315.332031 134.019531 L 315.4375 135.535156 "/>
<path style="fill:none;stroke-width:0.42177;stroke-linecap:round;stroke-linejoin:round;stroke:rgb(0%,0%,0%);stroke-opacity:1;comp-op:src;clip-to-self:true;stroke-miterlimit:10;" d="M 315.4375 135.535156 L 315.472656 136.734375 "/>
<path style="fill:none;stroke-width:0.426971;stroke-linecap:round;stroke-linejoin:round;stroke:rgb(0%,0%,0%);stroke-opacity:1;comp-op:src;clip-to-self:true;stroke-miterlimit:10;" d="M 315.472656 136.734375 L 315.507812 137.652344 "/>
<path style="fill:none;stroke-width:0.431122;stroke-linecap:round;stroke-linejoin:round;stroke:rgb(0%,0%,0%);stroke-opacity:1;comp-op:src;clip-to-self:true;stroke-miterlimit:10;" d="M 315.507812 137.652344 L 315.507812 138.355469 "/>
<path style="fill:none;stroke-width:0.434235;stroke-linecap:round;stroke-linejoin:round;stroke:rgb(0%,0%,0%);stroke-opacity:1;comp-op:src;clip-to-self:true;stroke-miterlimit:10;" d="M 315.507812 138.355469 L 315.4375 138.882812 "/>
<path style="fill:none;stroke-width:0.436932;stroke-linecap:round;stroke-linejoin:round;stroke:rgb(0%,0%,0%);stroke-opacity:1;comp-op:src;clip-to-self:true;stroke-miterlimit:10;" d="M 315.4375 138.882812 L 315.332031 139.308594 "/>
<path style="fill:none;stroke-width:0.438593;stroke-linecap:round;stroke-linejoin:round;stroke:rgb(0%,0%,0%);stroke-opacity:1;comp-op:src;clip-to-self:true;stroke-miterlimit:10;" d="M 315.332031 139.308594 L 315.15625 139.625 "/>
<path style="fill:none;stroke-width:0.439838;stroke-linecap:round;stroke-linejoin:round;stroke:rgb(0%,0%,0%);stroke-opacity:1;comp-op:src;clip-to-self:true;stroke-miterlimit:10;" d="M 315.15625 139.625 L 314.980469 139.871094 "/>
<path style="fill:none;stroke-width:0.443988;stroke-linecap:round;stroke-linejoin:round;stroke:rgb(0%,0%,0%);stroke-opacity:1;comp-op:src;clip-to-self:true;stroke-miterlimit:10;" d="M 314.980469 139.871094 L 314.628906 140.152344 "/>
<path style="fill:none;stroke-width:0.452289;stroke-linecap:round;stroke-linejoin:round;stroke:rgb(0%,0%,0%);stroke-opacity:1;comp-op:src;clip-to-self:true;stroke-miterlimit:10;" d="M 314.628906 140.152344 L 314.3125 139.835938 "/>
<path style="fill:none;stroke-width:0.454156;stroke-linecap:round;stroke-linejoin:round;stroke:rgb(0%,0%,0%);stroke-opacity:1;comp-op:src;clip-to-self:true;stroke-miterlimit:10;" d="M 314.3125 139.835938 L 314.273438 139.414062 "/>
<path style="fill:none;stroke-width:0.456647;stroke-linecap:round;stroke-linejoin:round;stroke:rgb(0%,0%,0%);stroke-opacity:1;comp-op:src;clip-to-self:true;stroke-miterlimit:10;" d="M 314.273438 139.414062 L 314.273438 138.707031 "/>
<path style="fill:none;stroke-width:0.459967;stroke-linecap:round;stroke-linejoin:round;stroke:rgb(0%,0%,0%);stroke-opacity:1;comp-op:src;clip-to-self:true;stroke-miterlimit:10;" d="M 314.273438 138.707031 L 314.382812 137.792969 "/>
<path style="fill:none;stroke-width:0.466193;stroke-linecap:round;stroke-linejoin:round;stroke:rgb(0%,0%,0%);stroke-opacity:1;comp-op:src;clip-to-self:true;stroke-miterlimit:10;" d="M 314.382812 137.792969 L 314.59375 136.734375 "/>
<path style="fill:none;stroke-width:0.474078;stroke-linecap:round;stroke-linejoin:round;stroke:rgb(0%,0%,0%);stroke-opacity:1;comp-op:src;clip-to-self:true;stroke-miterlimit:10;" d="M 314.59375 136.734375 L 314.945312 135.605469 "/>
<path style="fill:none;stroke-width:0.4826;stroke-linecap:round;stroke-linejoin:round;stroke:rgb(0%,0%,0%);stroke-opacity:1;comp-op:src;clip-to-self:true;stroke-miterlimit:10;" d="M 314.945312 135.605469 L 315.402344 134.441406 "/>
<path style="fill:none;stroke-width:0.490693;stroke-linecap:round;stroke-linejoin:round;stroke:rgb(0%,0%,0%);stroke-opacity:1;comp-op:src;clip-to-self:true;stroke-miterlimit:10;" d="M 315.402344 134.441406 L 315.96875 133.382812 "/>
<path style="fill:none;stroke-width:0.495466;stroke-linecap:round;stroke-linejoin:round;stroke:rgb(0%,0%,0%);stroke-opacity:1;comp-op:src;clip-to-self:true;stroke-miterlimit:10;" d="M 315.96875 133.382812 L 316.601562 132.433594 "/>
<path style="fill:none;stroke-width:0.498579;stroke-linecap:round;stroke-linejoin:round;stroke:rgb(0%,0%,0%);stroke-opacity:1;comp-op:src;clip-to-self:true;stroke-miterlimit:10;" d="M 316.601562 132.433594 L 317.308594 131.65625 "/>
<path style="fill:none;stroke-width:0.499824;stroke-linecap:round;stroke-linejoin:round;stroke:rgb(0%,0%,0%);stroke-opacity:1;comp-op:src;clip-to-self:true;stroke-miterlimit:10;" d="M 317.308594 131.65625 L 318.117188 131.023438 "/>
<path style="fill:none;stroke-width:0.500031;stroke-linecap:round;stroke-linejoin:round;stroke:rgb(0%,0%,0%);stroke-opacity:1;comp-op:src;clip-to-self:true;stroke-miterlimit:10;" d="M 318.117188 131.023438 L 319.035156 130.597656 "/>
<path style="fill:none;stroke-width:0.500031;stroke-linecap:round;stroke-linejoin:round;stroke:rgb(0%,0%,0%);stroke-opacity:1;comp-op:src;clip-to-self:true;stroke-miterlimit:10;" d="M 319.035156 130.597656 L 320.058594 130.351562 "/>
<path style="fill:none;stroke-width:0.499824;stroke-linecap:round;stroke-linejoin:round;stroke:rgb(0%,0%,0%);stroke-opacity:1;comp-op:src;clip-to-self:true;stroke-miterlimit:10;" d="M 320.058594 130.351562 L 321.222656 130.316406 "/>
<path style="fill:none;stroke-width:0.499616;stroke-linecap:round;stroke-linejoin:round;stroke:rgb(0%,0%,0%);stroke-opacity:1;comp-op:src;clip-to-self:true;stroke-miterlimit:10;" d="M 321.222656 130.316406 L 322.527344 130.492188 "/>
<path style="fill:none;stroke-width:0.499409;stroke-linecap:round;stroke-linejoin:round;stroke:rgb(0%,0%,0%);stroke-opacity:1;comp-op:src;clip-to-self:true;stroke-miterlimit:10;" d="M 322.527344 130.492188 L 323.972656 130.878906 "/>
<path style="fill:none;stroke-width:0.499409;stroke-linecap:round;stroke-linejoin:round;stroke:rgb(0%,0%,0%);stroke-opacity:1;comp-op:src;clip-to-self:true;stroke-miterlimit:10;" d="M 323.972656 130.878906 L 325.417969 131.445312 "/>
<path style="fill:none;stroke-width:0.499824;stroke-linecap:round;stroke-linejoin:round;stroke:rgb(0%,0%,0%);stroke-opacity:1;comp-op:src;clip-to-self:true;stroke-miterlimit:10;" d="M 325.417969 131.445312 L 326.828125 132.148438 "/>
<path style="fill:none;stroke-width:0.500654;stroke-linecap:round;stroke-linejoin:round;stroke:rgb(0%,0%,0%);stroke-opacity:1;comp-op:src;clip-to-self:true;stroke-miterlimit:10;" d="M 326.828125 132.148438 L 328.097656 132.960938 "/>
<path style="fill:none;stroke-width:0.501899;stroke-linecap:round;stroke-linejoin:round;stroke:rgb(0%,0%,0%);stroke-opacity:1;comp-op:src;clip-to-self:true;stroke-miterlimit:10;" d="M 328.097656 132.960938 L 329.121094 133.808594 "/>
<path style="fill:none;stroke-width:0.504182;stroke-linecap:round;stroke-linejoin:round;stroke:rgb(0%,0%,0%);stroke-opacity:1;comp-op:src;clip-to-self:true;stroke-miterlimit:10;" d="M 329.121094 133.808594 L 329.894531 134.6875 "/>
<path style="fill:none;stroke-width:0.507087;stroke-linecap:round;stroke-linejoin:round;stroke:rgb(0%,0%,0%);stroke-opacity:1;comp-op:src;clip-to-self:true;stroke-miterlimit:10;" d="M 329.894531 134.6875 L 330.355469 135.640625 "/>
<path style="fill:none;stroke-width:0.51186;stroke-linecap:round;stroke-linejoin:round;stroke:rgb(0%,0%,0%);stroke-opacity:1;comp-op:src;clip-to-self:true;stroke-miterlimit:10;" d="M 330.355469 135.640625 L 330.601562 136.59375 "/>
<path style="fill:none;stroke-width:0.51684;stroke-linecap:round;stroke-linejoin:round;stroke:rgb(0%,0%,0%);stroke-opacity:1;comp-op:src;clip-to-self:true;stroke-miterlimit:10;" d="M 330.601562 136.59375 L 330.566406 137.578125 "/>
<path style="fill:none;stroke-width:0.522651;stroke-linecap:round;stroke-linejoin:round;stroke:rgb(0%,0%,0%);stroke-opacity:1;comp-op:src;clip-to-self:true;stroke-miterlimit:10;" d="M 330.566406 137.578125 L 330.25 138.601562 "/>
<path style="fill:none;stroke-width:0.528046;stroke-linecap:round;stroke-linejoin:round;stroke:rgb(0%,0%,0%);stroke-opacity:1;comp-op:src;clip-to-self:true;stroke-miterlimit:10;" d="M 330.25 138.601562 L 329.71875 139.554688 "/>
<path style="fill:none;stroke-width:0.531795;stroke-linecap:round;stroke-linejoin:round;stroke:rgb(0%,0%,0%);stroke-opacity:1;comp-op:src;clip-to-self:true;stroke-miterlimit:10;" d="M 329.71875 139.554688 L 328.910156 140.507812 "/>
<path style="fill:none;stroke-width:0.535115;stroke-linecap:round;stroke-linejoin:round;stroke:rgb(0%,0%,0%);stroke-opacity:1;comp-op:src;clip-to-self:true;stroke-miterlimit:10;" d="M 328.910156 140.507812 L 327.851562 141.351562 "/>
<path style="fill:none;stroke-width:0.536775;stroke-linecap:round;stroke-linejoin:round;stroke:rgb(0%,0%,0%);stroke-opacity:1;comp-op:src;clip-to-self:true;stroke-miterlimit:10;" d="M 327.851562 141.351562 L 326.476562 142.199219 "/>
<path style="fill:none;stroke-width:0.537605;stroke-linecap:round;stroke-linejoin:round;stroke:rgb(0%,0%,0%);stroke-opacity:1;comp-op:src;clip-to-self:true;stroke-miterlimit:10;" d="M 326.476562 142.199219 L 324.890625 143.046875 "/>
<path style="fill:none;stroke-width:0.538435;stroke-linecap:round;stroke-linejoin:round;stroke:rgb(0%,0%,0%);stroke-opacity:1;comp-op:src;clip-to-self:true;stroke-miterlimit:10;" d="M 324.890625 143.046875 L 323.160156 143.855469 "/>
<path style="fill:none;stroke-width:0.53885;stroke-linecap:round;stroke-linejoin:round;stroke:rgb(0%,0%,0%);stroke-opacity:1;comp-op:src;clip-to-self:true;stroke-miterlimit:10;" d="M 323.160156 143.855469 L 321.328125 144.703125 "/>
<path style="fill:none;stroke-width:0.539265;stroke-linecap:round;stroke-linejoin:round;stroke:rgb(0%,0%,0%);stroke-opacity:1;comp-op:src;clip-to-self:true;stroke-miterlimit:10;" d="M 321.328125 144.703125 L 319.601562 145.476562 "/>
<path style="fill:none;stroke-width:0.539473;stroke-linecap:round;stroke-linejoin:round;stroke:rgb(0%,0%,0%);stroke-opacity:1;comp-op:src;clip-to-self:true;stroke-miterlimit:10;" d="M 319.601562 145.476562 L 317.976562 146.113281 "/>
<path style="fill:none;stroke-width:0.535945;stroke-linecap:round;stroke-linejoin:round;stroke:rgb(0%,0%,0%);stroke-opacity:1;comp-op:src;clip-to-self:true;stroke-miterlimit:10;" d="M 317.976562 146.113281 L 316.53125 146.605469 "/>
<path style="fill:none;stroke-width:0.527631;stroke-linecap:round;stroke-linejoin:round;stroke:rgb(0%,0%,0%);stroke-opacity:1;comp-op:src;clip-to-self:true;stroke-miterlimit:10;" d="M 316.53125 146.605469 L 315.332031 146.890625 "/>
<path style="fill:none;stroke-width:0.503559;stroke-linecap:round;stroke-linejoin:round;stroke:rgb(0%,0%,0%);stroke-opacity:1;comp-op:src;clip-to-self:true;stroke-miterlimit:10;" d="M 315.332031 146.890625 L 314.382812 146.996094 "/>
<path style="fill:none;stroke-width:0.46557;stroke-linecap:round;stroke-linejoin:round;stroke:rgb(0%,0%,0%);stroke-opacity:1;comp-op:src;clip-to-self:true;stroke-miterlimit:10;" d="M 314.382812 146.996094 L 313.675781 146.925781 "/>
<path style="fill:none;stroke-width:0.34705;stroke-linecap:round;stroke-linejoin:round;stroke:rgb(0%,0%,0%);stroke-opacity:1;comp-op:src;clip-to-self:true;stroke-miterlimit:10;" d="M 313.675781 146.925781 L 313.359375 146.746094 "/>
<path style="fill:none;stroke-width:0.300761;stroke-linecap:round;stroke-linejoin:round;stroke:rgb(0%,0%,0%);stroke-opacity:1;comp-op:src;clip-to-self:true;stroke-miterlimit:10;" d="M 313.359375 146.746094 L 313.429688 146.429688 "/>
<path style="fill:none;stroke-width:0.0425;stroke-linecap:round;stroke-linejoin:round;stroke:rgb(0%,0%,0%);stroke-opacity:1;comp-op:src;clip-to-self:true;stroke-miterlimit:10;" d="M 313.429688 146.429688 L 313.640625 146.113281 "/>
<path style="fill:none;stroke-width:0.395;stroke-linecap:round;stroke-linejoin:round;stroke:rgb(0%,0%,0%);stroke-opacity:1;comp-op:src;clip-to-self:true;stroke-miterlimit:10;" d="M 164.0625 241.210938 L 163.851562 240.714844 "/>
<path style="fill:none;stroke-width:0.396661;stroke-linecap:round;stroke-linejoin:round;stroke:rgb(0%,0%,0%);stroke-opacity:1;comp-op:src;clip-to-self:true;stroke-miterlimit:10;" d="M 163.851562 240.714844 L 163.570312 240.46875 "/>
<path style="fill:none;stroke-width:0.397076;stroke-linecap:round;stroke-linejoin:round;stroke:rgb(0%,0%,0%);stroke-opacity:1;comp-op:src;clip-to-self:true;stroke-miterlimit:10;" d="M 163.570312 240.46875 L 163.179688 240.222656 "/>
<path style="fill:none;stroke-width:0.397283;stroke-linecap:round;stroke-linejoin:round;stroke:rgb(0%,0%,0%);stroke-opacity:1;comp-op:src;clip-to-self:true;stroke-miterlimit:10;" d="M 163.179688 240.222656 L 162.582031 240.011719 "/>
<path style="fill:none;stroke-width:0.397491;stroke-linecap:round;stroke-linejoin:round;stroke:rgb(0%,0%,0%);stroke-opacity:1;comp-op:src;clip-to-self:true;stroke-miterlimit:10;" d="M 162.582031 240.011719 L 161.875 239.871094 "/>
<path style="fill:none;stroke-width:0.397491;stroke-linecap:round;stroke-linejoin:round;stroke:rgb(0%,0%,0%);stroke-opacity:1;comp-op:src;clip-to-self:true;stroke-miterlimit:10;" d="M 161.875 239.871094 L 161.066406 239.765625 "/>
<path style="fill:none;stroke-width:0.397906;stroke-linecap:round;stroke-linejoin:round;stroke:rgb(0%,0%,0%);stroke-opacity:1;comp-op:src;clip-to-self:true;stroke-miterlimit:10;" d="M 161.066406 239.765625 L 160.113281 239.765625 "/>
<path style="fill:none;stroke-width:0.398736;stroke-linecap:round;stroke-linejoin:round;stroke:rgb(0%,0%,0%);stroke-opacity:1;comp-op:src;clip-to-self:true;stroke-miterlimit:10;" d="M 160.113281 239.765625 L 159.089844 239.941406 "/>
<path style="fill:none;stroke-width:0.399566;stroke-linecap:round;stroke-linejoin:round;stroke:rgb(0%,0%,0%);stroke-opacity:1;comp-op:src;clip-to-self:true;stroke-miterlimit:10;" d="M 159.089844 239.941406 L 158.035156 240.328125 "/>
<path style="fill:none;stroke-width:0.401019;stroke-linecap:round;stroke-linejoin:round;stroke:rgb(0%,0%,0%);stroke-opacity:1;comp-op:src;clip-to-self:true;stroke-miterlimit:10;" d="M 158.035156 240.328125 L 156.976562 240.929688 "/>
<path style="fill:none;stroke-width:0.402471;stroke-linecap:round;stroke-linejoin:round;stroke:rgb(0%,0%,0%);stroke-opacity:1;comp-op:src;clip-to-self:true;stroke-miterlimit:10;" d="M 156.976562 240.929688 L 155.953125 241.703125 "/>
<path style="fill:none;stroke-width:0.403924;stroke-linecap:round;stroke-linejoin:round;stroke:rgb(0%,0%,0%);stroke-opacity:1;comp-op:src;clip-to-self:true;stroke-miterlimit:10;" d="M 155.953125 241.703125 L 154.894531 242.621094 "/>
<path style="fill:none;stroke-width:0.405169;stroke-linecap:round;stroke-linejoin:round;stroke:rgb(0%,0%,0%);stroke-opacity:1;comp-op:src;clip-to-self:true;stroke-miterlimit:10;" d="M 154.894531 242.621094 L 153.871094 243.714844 "/>
<path style="fill:none;stroke-width:0.406207;stroke-linecap:round;stroke-linejoin:round;stroke:rgb(0%,0%,0%);stroke-opacity:1;comp-op:src;clip-to-self:true;stroke-miterlimit:10;" d="M 153.871094 243.714844 L 152.886719 244.878906 "/>
<path style="fill:none;stroke-width:0.407244;stroke-linecap:round;stroke-linejoin:round;stroke:rgb(0%,0%,0%);stroke-opacity:1;comp-op:src;clip-to-self:true;stroke-miterlimit:10;" d="M 152.886719 244.878906 L 151.933594 246.183594 "/>
<path style="fill:none;stroke-width:0.408697;stroke-linecap:round;stroke-linejoin:round;stroke:rgb(0%,0%,0%);stroke-opacity:1;comp-op:src;clip-to-self:true;stroke-miterlimit:10;" d="M 151.933594 246.183594 L 151.121094 247.523438 "/>
<path style="fill:none;stroke-width:0.410357;stroke-linecap:round;stroke-linejoin:round;stroke:rgb(0%,0%,0%);stroke-opacity:1;comp-op:src;clip-to-self:true;stroke-miterlimit:10;" d="M 151.121094 247.523438 L 150.417969 248.898438 "/>
<path style="fill:none;stroke-width:0.413262;stroke-linecap:round;stroke-linejoin:round;stroke:rgb(0%,0%,0%);stroke-opacity:1;comp-op:src;clip-to-self:true;stroke-miterlimit:10;" d="M 150.417969 248.898438 L 149.957031 250.308594 "/>
<path style="fill:none;stroke-width:0.416582;stroke-linecap:round;stroke-linejoin:round;stroke:rgb(0%,0%,0%);stroke-opacity:1;comp-op:src;clip-to-self:true;stroke-miterlimit:10;" d="M 149.957031 250.308594 L 149.640625 251.753906 "/>
<path style="fill:none;stroke-width:0.422601;stroke-linecap:round;stroke-linejoin:round;stroke:rgb(0%,0%,0%);stroke-opacity:1;comp-op:src;clip-to-self:true;stroke-miterlimit:10;" d="M 149.640625 251.753906 L 149.605469 253.234375 "/>
<path style="fill:none;stroke-width:0.430499;stroke-linecap:round;stroke-linejoin:round;stroke:rgb(0%,0%,0%);stroke-opacity:1;comp-op:src;clip-to-self:true;stroke-miterlimit:10;" d="M 149.605469 253.234375 L 149.886719 254.75 "/>
<path style="fill:none;stroke-width:0.43963;stroke-linecap:round;stroke-linejoin:round;stroke:rgb(0%,0%,0%);stroke-opacity:1;comp-op:src;clip-to-self:true;stroke-miterlimit:10;" d="M 149.886719 254.75 L 150.488281 256.230469 "/>
<path style="fill:none;stroke-width:0.449591;stroke-linecap:round;stroke-linejoin:round;stroke:rgb(0%,0%,0%);stroke-opacity:1;comp-op:src;clip-to-self:true;stroke-miterlimit:10;" d="M 150.488281 256.230469 L 151.476562 257.605469 "/>
<path style="fill:none;stroke-width:0.458514;stroke-linecap:round;stroke-linejoin:round;stroke:rgb(0%,0%,0%);stroke-opacity:1;comp-op:src;clip-to-self:true;stroke-miterlimit:10;" d="M 151.476562 257.605469 L 152.78125 258.769531 "/>
<path style="fill:none;stroke-width:0.465778;stroke-linecap:round;stroke-linejoin:round;stroke:rgb(0%,0%,0%);stroke-opacity:1;comp-op:src;clip-to-self:true;stroke-miterlimit:10;" d="M 152.78125 258.769531 L 154.402344 259.546875 "/>
<path style="fill:none;stroke-width:0.470966;stroke-linecap:round;stroke-linejoin:round;stroke:rgb(0%,0%,0%);stroke-opacity:1;comp-op:src;clip-to-self:true;stroke-miterlimit:10;" d="M 154.402344 259.546875 L 156.339844 259.96875 "/>
<path style="fill:none;stroke-width:0.474908;stroke-linecap:round;stroke-linejoin:round;stroke:rgb(0%,0%,0%);stroke-opacity:1;comp-op:src;clip-to-self:true;stroke-miterlimit:10;" d="M 156.339844 259.96875 L 158.597656 259.898438 "/>
<path style="fill:none;stroke-width:0.475116;stroke-linecap:round;stroke-linejoin:round;stroke:rgb(0%,0%,0%);stroke-opacity:1;comp-op:src;clip-to-self:true;stroke-miterlimit:10;" d="M 158.597656 259.898438 L 161.136719 259.40625 "/>
<path style="fill:none;stroke-width:0.46391;stroke-linecap:round;stroke-linejoin:round;stroke:rgb(0%,0%,0%);stroke-opacity:1;comp-op:src;clip-to-self:true;stroke-miterlimit:10;" d="M 161.136719 259.40625 L 163.886719 258.558594 "/>
<path style="fill:none;stroke-width:0.459967;stroke-linecap:round;stroke-linejoin:round;stroke:rgb(0%,0%,0%);stroke-opacity:1;comp-op:src;clip-to-self:true;stroke-miterlimit:10;" d="M 163.886719 258.558594 L 166.601562 257.429688 "/>
<path style="fill:none;stroke-width:0.251234;stroke-linecap:round;stroke-linejoin:round;stroke:rgb(0%,0%,0%);stroke-opacity:1;comp-op:src;clip-to-self:true;stroke-miterlimit:10;" d="M 166.601562 257.429688 L 167.605469 256.988281 "/>
<path style="fill:none;stroke-width:0.0425;stroke-linecap:round;stroke-linejoin:round;stroke:rgb(0%,0%,0%);stroke-opacity:1;comp-op:src;clip-to-self:true;stroke-miterlimit:10;" d="M 167.605469 256.988281 L 168.613281 256.546875 "/>
</g>
</svg>
