<?xml version="1.0" encoding="UTF-8"?>
<svg xmlns="http://www.w3.org/2000/svg" xmlns:xlink="http://www.w3.org/1999/xlink" width="425.19pt" height="425.19pt" viewBox="0 0 425.19 425.19" version="1.2">
<g id="surface5">
<path style=" stroke:none;fill-rule:nonzero;fill:rgb(100%,100%,100%);fill-opacity:1;" d="M 0 0 L 425.191406 0 L 425.191406 425.191406 L 0 425.191406 Z M 0 0 "/>
<path style="fill:none;stroke-width:0.5;stroke-linecap:butt;stroke-linejoin:miter;stroke:rgb(74.117647%,74.117647%,74.117647%);stroke-opacity:1;stroke-miterlimit:10;" d="M 14.171875 -2.5 L 14.171875 422.691406 M 28.339844 -2.5 L 28.339844 422.691406 M 42.511719 -2.5 L 42.511719 422.691406 M 56.679688 -2.5 L 56.679688 422.691406 M 70.851562 -2.5 L 70.851562 422.691406 M 85.019531 -2.5 L 85.019531 422.691406 M 99.191406 -2.5 L 99.191406 422.691406 M 113.359375 -2.5 L 113.359375 422.691406 M 127.53125 -2.5 L 127.53125 422.691406 M 141.699219 -2.5 L 141.699219 422.691406 M 155.871094 -2.5 L 155.871094 422.691406 M 170.039062 -2.5 L 170.039062 422.691406 M 184.210938 -2.5 L 184.210938 422.691406 M 198.378906 -2.5 L 198.378906 422.691406 M 212.550781 -2.5 L 212.550781 422.691406 M 226.71875 -2.5 L 226.71875 422.691406 M 240.890625 -2.5 L 240.890625 422.691406 M 255.058594 -2.5 L 255.058594 422.691406 M 269.230469 -2.5 L 269.230469 422.691406 M 283.398438 -2.5 L 283.398438 422.691406 M 297.570312 -2.5 L 297.570312 422.691406 M 311.738281 -2.5 L 311.738281 422.691406 M 325.910156 -2.5 L 325.910156 422.691406 M 340.078125 -2.5 L 340.078125 422.691406 M 354.25 -2.5 L 354.25 422.691406 M 368.421875 -2.5 L 368.421875 422.691406 M 382.589844 -2.5 L 382.589844 422.691406 M 396.761719 -2.5 L 396.761719 422.691406 M 410.929688 -2.5 L 410.929688 422.691406 M 425.101562 -2.5 L 425.101562 422.691406 M 0 14.171875 L 425.191406 14.171875 M 0 28.339844 L 425.191406 28.339844 M 0 42.511719 L 425.191406 42.511719 M 0 56.679688 L 425.191406 56.679688 M 0 70.851562 L 425.191406 70.851562 M 0 85.019531 L 425.191406 85.019531 M 0 99.191406 L 425.191406 99.191406 M 0 113.359375 L 425.191406 113.359375 M 0 127.53125 L 425.191406 127.53125 M 0 141.699219 L 425.191406 141.699219 M 0 155.871094 L 425.191406 155.871094 M 0 170.039062 L 425.191406 170.039062 M 0 184.210938 L 425.191406 184.210938 M 0 198.378906 L 425.191406 198.378906 M 0 212.550781 L 425.191406 212.550781 M 0 226.71875 L 425.191406 226.71875 M 0 240.890625 L 425.191406 240.890625 M 0 255.058594 L 425.191406 255.058594 M 0 269.230469 L 425.191406 269.230469 M 0 283.398438 L 425.191406 283.398438 M 0 297.570312 L 425.191406 297.570312 M 0 311.738281 L 425.191406 311.738281 M 0 325.910156 L 425.191406 325.910156 M 0 340.078125 L 425.191406 340.078125 M 0 354.25 L 425.191406 354.25 M 0 368.421875 L 425.191406 368.421875 M 0 382.589844 L 425.191406 382.589844 M 0 396.761719 L 425.191406 396.761719 M 0 410.929688 L 425.191406 410.929688 M 0 425.101562 L 425.191406 425.101562 "/>
</g>
</svg>
